<svg enable-background="new 0 0 110 110" height="512" viewBox="0 0 110 110" width="512" xmlns="http://www.w3.org/2000/svg"><path d="m62.9878616 74.2741776c0-7.4614258 0-14.9233398.0004883-22.3852539-6.9907227-.0004883-13.980957-.0004883-20.9711914 0v22.3852539c1.3828125 12.520996 19.5878906 12.520996 20.9707031 0z" fill="#d6b24e"/><g fill="#e2bc5d"><path d="m70.1548538 31.0905857c-.0703125-2.0932617-1.7836914-3.7509766-3.878418-3.7509766h-29.040039c-.5571289 0-1.0751953.1313477-1.550293.3432617v11.3486309h-1.2802734c-.0073242.46875-.0947266.7563477-.3027344.8051758v6.0126953c0 5.2680664 4.9458008 12.1298828 9.7084961 17.5166016 4.6196289 5.2250977 12.7539062 5.2250977 17.3735352 0 4.7626953-5.387207 9.7089844-12.2490234 9.7089844-17.5161133v-8.3344727c-.4555665-2.161621-.6699219-4.3598632-.7392579-6.4248027z"/><ellipse cx="34.566" cy="42.573" rx="3.327" ry="6.37"/><ellipse cx="69.676" cy="42.573" rx="3.327" ry="6.37"/></g><path d="m34.2692299 45.331337s-3.7132683-28.2766781 6.5703621-31.0541687c6.2628365-1.6915197 17.0293159-1.2570276 23.419632-.1398201 3.913269.6841488 8.8012848 3.2281466 7.9036865 13.7854815s-1.268837 17.4085064-1.268837 17.4085064h-1.0258255s-.3981323-8.2493668-1.8086472-14.8208981c0 0 .769371-2.7963963-8.9759827-.6990986s-18.7213364-.9787388-18.7213364-.9787388-4.733429-1.1059971-4.4798508 6.0138569c.0505371 1.4189606-.0645142 2.8346977-.2505608 4.2423172-.3353233 2.5370331-.7538681 5.9798889-.5932693 6.2425613h-.7693709z" fill="#19282f"/><path d="m83.9380569 76.729744-20.949707-10.8222656-.2954102 2.8813477c-.3730469 3.6328125-2.7241211 6.762207-6.1098633 8.1308594l-.6923828.2797852c-2.184082.8833008-4.612793.9545898-6.8452148.2011719-3.6054688-1.2163086-6.1884766-4.3999023-6.6357422-8.1787109l-.3925781-3.3144531-20.959959 10.8222654s-2.3979492.7783203-4.3540039 3.7548828c6.4995117 7.4980469 15.3022442 12.9355469 25.3139629 15.1962891 3.0029297.6826172 6.1108398 1.0712891 9.2919922 1.15625l.015625.0117188h1.7563477c.199707-.0107422.3999023-.0107422.5996094-.0107422 3.1865234-.0844727 6.2998047-.4736328 9.3076172-1.1572266 10.0014648-2.2607422 18.8041992-7.6982422 25.3032227-15.1962891-1.9555665-2.9765625-4.3535158-3.7548828-4.3535158-3.7548828z" fill="#467082"/><circle cx="78.778" cy="82.33" fill="#ededed" r="14.519"/><g fill="#344d5b"><path d="m73.9934616 77.6732788c-.3180847-.4401398-.9336014-.5391235-1.3742218-.220314l-5.6381531 4.0799103c-.2556305.1849899-.4069824.4814529-.4069824.797142s.1513519.6121521.4069824.797142l5.6381531 4.0799026c.1744232.1261368.3762283.1869202.5761185.1869202.3051147 0 .6059036-.1412659.7981033-.4072266.318573-.4401321.2200699-1.0554123-.2200699-1.3739777l-4.53685-3.2827606 4.53685-3.2827606c.4401398-.3185653.5386429-.9338455.2200699-1.3739776z"/><path d="m90.5749435 81.5328751-5.6381531-4.0799103c-.4406128-.3188095-1.0561295-.2198257-1.3742218.220314-.318573.4401321-.2200699 1.0554123.2200699 1.3739777l4.5368576 3.2827606-4.5368576 3.2827606c-.4401398.3185654-.5386429.9338455-.2200699 1.3739777.1921997.2659607.4929886.4072266.7981033.4072266.1998901 0 .4016953-.0607834.5761185-.1869202l5.6381531-4.0799026c.2556305-.1849899.4069824-.4814529.4069824-.797142s-.1513519-.6121522-.4069824-.7971421z"/><path d="m81.3085556 75.792366c-.5064468-.1962814-1.0763168.0555038-1.2728348.5624237l-4.351387 11.240036c-.1960449.5066833.0557404 1.0765533.5626602 1.2728424.1167603.0454025.2368851.0665436.3550873.0665436.3944931 0 .7668762-.2388077.9177551-.6289673l4.3513794-11.240036c.1960449-.5066833-.0557327-1.0765533-.5626602-1.2728424z"/></g></svg>